<svg width="27" height="27" viewBox="0 0 27 27" fill="none" xmlns="http://www.w3.org/2000/svg">
<path d="M18 18L13.5 13.5L9 18" stroke="black" stroke-width="2" stroke-linecap="round" stroke-linejoin="round"/>
<path d="M13.5 13.5V23.625" stroke="black" stroke-width="2" stroke-linecap="round" stroke-linejoin="round"/>
<path d="M22.9389 20.6887C24.0361 20.0905 24.903 19.1439 25.4025 17.9984C25.902 16.8528 26.0059 15.5736 25.6976 14.3624C25.3894 13.1513 24.6866 12.0774 23.7001 11.31C22.7137 10.5427 21.4999 10.1257 20.2501 10.1249H18.8326C18.4921 8.80782 17.8574 7.58505 16.9763 6.54854C16.0952 5.51203 14.9906 4.68875 13.7455 4.1406C12.5004 3.59246 11.1473 3.3337 9.78777 3.38379C8.42828 3.43388 7.09784 3.79151 5.89646 4.42979C4.69509 5.06808 3.65404 5.97041 2.85159 7.06895C2.04914 8.16749 1.50616 9.43365 1.26349 10.7722C1.02082 12.1108 1.08476 13.487 1.4505 14.7973C1.81625 16.1077 2.47429 17.318 3.37514 18.3374" stroke="black" stroke-width="2" stroke-linecap="round" stroke-linejoin="round"/>
<path d="M18 18L13.5 13.5L9 18" stroke="black" stroke-width="2" stroke-linecap="round" stroke-linejoin="round"/>
</svg>
