<svg width="17" height="17" viewBox="0 0 17 17" fill="none" xmlns="http://www.w3.org/2000/svg">
<path d="M16.4166 12.395V14.77C16.4175 14.9905 16.3724 15.2087 16.284 15.4107C16.1957 15.6127 16.0662 15.7941 15.9037 15.9431C15.7412 16.0922 15.5494 16.2057 15.3406 16.2763C15.1317 16.3469 14.9104 16.3732 14.6908 16.3533C12.2547 16.0886 9.91468 15.2562 7.85872 13.9229C5.94591 12.7074 4.32419 11.0857 3.10872 9.17291C1.77078 7.10762 0.93816 4.7562 0.678301 2.30916C0.658517 2.09024 0.684535 1.8696 0.754697 1.66128C0.824859 1.45297 0.937628 1.26154 1.08582 1.0992C1.23402 0.93685 1.4144 0.80714 1.61547 0.718325C1.81654 0.62951 2.0339 0.583536 2.25372 0.583329H4.62872C5.01292 0.579547 5.38539 0.715599 5.6767 0.966125C5.96801 1.21665 6.15828 1.56456 6.21205 1.945C6.31229 2.70505 6.4982 3.45132 6.76622 4.16958C6.87273 4.45294 6.89578 4.76089 6.83264 5.05694C6.7695 5.353 6.62282 5.62475 6.40997 5.84L5.40455 6.84541C6.53153 8.82739 8.17258 10.4684 10.1546 11.5954L11.16 10.59C11.3752 10.3771 11.647 10.2305 11.943 10.1673C12.2391 10.1042 12.547 10.1272 12.8304 10.2337C13.5486 10.5018 14.2949 10.6877 15.055 10.7879C15.4395 10.8422 15.7907 11.0359 16.0418 11.3322C16.2929 11.6285 16.4263 12.0067 16.4166 12.395Z" stroke="black" stroke-linecap="round" stroke-linejoin="round"/>
</svg>
