<svg width="19" height="19" viewBox="0 0 19 19" fill="none" xmlns="http://www.w3.org/2000/svg">
<path d="M15.9598 7.91675C15.9598 13.4584 9.11979 18.2084 9.11979 18.2084C9.11979 18.2084 2.27979 13.4584 2.27979 7.91675C2.27979 6.02708 3.00043 4.21481 4.28317 2.87861C5.56592 1.54242 7.3057 0.791748 9.11979 0.791748C10.9339 0.791748 12.6736 1.54242 13.9564 2.87861C15.2391 4.21481 15.9598 6.02708 15.9598 7.91675Z" stroke="black" stroke-linecap="round" stroke-linejoin="round"/>
<path d="M9.11984 10.2917C10.3791 10.2917 11.3998 9.22842 11.3998 7.91675C11.3998 6.60507 10.3791 5.54175 9.11984 5.54175C7.86063 5.54175 6.83984 6.60507 6.83984 7.91675C6.83984 9.22842 7.86063 10.2917 9.11984 10.2917Z" stroke="black" stroke-linecap="round" stroke-linejoin="round"/>
</svg>
